<svg width="31" height="30" viewBox="0 0 31 30" fill="none" xmlns="http://www.w3.org/2000/svg">
<g clip-path="url(#clip0_899_629)">
<path d="M9.5 6V3C9.5 2.46957 9.71071 1.96086 10.0858 1.58579C10.4609 1.21071 10.9696 1 11.5 1H19.5C20.0304 1 20.5391 1.21071 20.9142 1.58579C21.2893 1.96086 21.5 2.46957 21.5 3V6M0.5 7H30.5M3.5 7V27C3.5 27.5304 3.71071 28.0391 4.08579 28.4142C4.46086 28.7893 4.96957 29 5.5 29H25.5C26.0304 29 26.5391 28.7893 26.9142 28.4142C27.2893 28.0391 27.5 27.5304 27.5 27V7M15.5 14V24M9.5 18V24M21.5 18V24" stroke="black" stroke-width="2"/>
</g>
<defs>
<clipPath id="clip0_899_629">
<rect width="30" height="30" fill="white" transform="translate(0.5)"/>
</clipPath>
</defs>
</svg>
