<svg width="31" height="31" viewBox="0 0 31 31" fill="none" xmlns="http://www.w3.org/2000/svg">
<path d="M21.8501 8V5.5C21.8501 4.125 20.7251 3 19.3501 3H11.8501C10.4751 3 9.3501 4.125 9.3501 5.5V8H3.1001V10.5H5.6001V25.5C5.6001 26.875 6.7251 28 8.1001 28H23.1001C24.4751 28 25.6001 26.875 25.6001 25.5V10.5H28.1001V8H21.8501ZM11.8501 5.5H19.3501V8H11.8501V5.5ZM8.1001 25.5V10.5H23.1001V25.5H8.1001Z" fill="black"/>
<path d="M21.8501 8V5.5C21.8501 4.125 20.7251 3 19.3501 3H11.8501C10.4751 3 9.3501 4.125 9.3501 5.5V8H3.1001V10.5H5.6001V25.5C5.6001 26.875 6.7251 28 8.1001 28H23.1001C24.4751 28 25.6001 26.875 25.6001 25.5V10.5H28.1001V8H21.8501ZM11.8501 5.5H19.3501V8H11.8501V5.5ZM8.1001 25.5V10.5H23.1001V25.5H8.1001Z" fill="black"/>
<path d="M11.8501 13H14.3501V23H11.8501V13ZM16.8501 13H19.3501V23H16.8501V13Z" fill="black"/>
</svg>
