<svg width="43" height="44" viewBox="0 0 43 44" fill="none" xmlns="http://www.w3.org/2000/svg">
<path d="M38.6273 36.9778L32.1552 30.5057C34.5883 27.6355 35.9231 23.9945 35.9217 20.2317C35.9217 11.448 28.7904 4.3167 20.0067 4.3167C11.223 4.3167 4.09172 11.448 4.09172 20.2317C4.09172 29.0154 11.223 36.1467 20.0067 36.1467C23.9236 36.1467 27.5044 34.725 30.2772 32.3801L36.7493 38.8522C36.997 39.1024 37.3345 39.2431 37.6865 39.2431C38.0386 39.2431 38.376 39.1024 38.6237 38.8522C38.8739 38.6047 39.0149 38.2677 39.0156 37.9158C39.0162 37.5639 38.8765 37.2263 38.6273 36.9778ZM6.74422 20.2317C6.74422 12.9196 12.6947 6.9692 20.0067 6.9692C27.3188 6.9692 33.2692 12.9196 33.2692 20.2317C33.2692 27.5438 27.3188 33.4942 20.0067 33.4942C12.6947 33.4942 6.74422 27.5438 6.74422 20.2317Z" fill="#7CC0FF"/>
</svg>
