<svg width="42" height="43" viewBox="0 0 42 43" fill="none" xmlns="http://www.w3.org/2000/svg">
<path d="M8.00098 36C12.6676 34 15.6676 32.3333 17.001 31C19.001 29 13.001 29 13.001 19C13.001 12.3333 15.6676 9 21.001 9C26.3343 9 29.001 12.3333 29.001 19C29.001 29 23.001 29 25.001 31C26.3343 32.3333 29.3343 34 34.001 36" stroke="black" stroke-width="2" stroke-linecap="round"/>
<path d="M21 41.5C32.0457 41.5 41 32.5457 41 21.5C41 10.4543 32.0457 1.5 21 1.5C9.9543 1.5 1 10.4543 1 21.5C1 32.5457 9.9543 41.5 21 41.5Z" stroke="black" stroke-width="2" stroke-linecap="square"/>
</svg>
