<svg width="42" height="43" viewBox="0 0 42 43" fill="none" xmlns="http://www.w3.org/2000/svg">
<path d="M9.57143 24.3571V4.35714C9.57143 3.59938 9.87245 2.87266 10.4083 2.33684C10.9441 1.80102 11.6708 1.5 12.4286 1.5H21L26.7143 7.21429H38.1429C38.9006 7.21429 39.6273 7.51531 40.1632 8.05112C40.699 8.58694 41 9.31367 41 10.0714V24.3571C41 25.1149 40.699 25.8416 40.1632 26.3774C39.6273 26.9133 38.9006 27.2143 38.1429 27.2143H12.4286M9.57143 24.3571C9.57143 25.1149 9.87245 25.8416 10.4083 26.3774C10.9441 26.9133 11.6708 27.2143 12.4286 27.2143M9.57143 24.3571V15.7857H3.85714C3.09938 15.7857 2.37266 16.0867 1.83684 16.6226C1.30102 17.1584 1 17.8851 1 18.6429V38.6429C1 39.4006 1.30102 40.1273 1.83684 40.6632C2.37266 41.199 3.09938 41.5 3.85714 41.5H29.5714C30.3292 41.5 31.0559 41.199 31.5917 40.6632C32.1276 40.1273 32.4286 39.4006 32.4286 38.6429V27.2143H12.4286" stroke="black" stroke-width="2"/>
</svg>
